{"asset":{"version":"2.0","generator":"THREE.GLTFExporter r169"},"scenes":[{"nodes":[0]}],"scene":0,"nodes":[{"name":"glider","mesh":0}],"bufferViews":[{"buffer":0,"byteOffset":0,"byteLength":10560,"target":34962,"byteStride":12},{"buffer":0,"byteOffset":10560,"byteLength":10560,"target":34962,"byteStride":12},{"buffer":0,"byteOffset":21120,"byteLength":7040,"target":34962,"byteStride":8},{"buffer":0,"byteOffset":28160,"byteLength":5832,"target":34963}],"buffers":[{"byteLength":33992,"uri":"data:application/octet-stream;base64,"}],"accessors":[{"bufferView":0,"componentType":5126,"count":880,"max":[1.8074508905410767,0.6668905019760132,2.4000000953674316],"min":[-1.8074508905410767,-0.6119070053100586,-2.1648988723754883],"type":"VEC3"},{"bufferView":1,"componentType":5126,"count":880,"max":[1,1,1],"min":[-1,-1,-1],"type":"VEC3"},{"bufferView":2,"componentType":5126,"count":880,"max":[1.0208333730697632,1],"min":[-0.02083333395421505,0],"type":"VEC2"},{"bufferView":3,"componentType":5123,"count":2916,"max":[879],"min":[0],"type":"SCALAR"}],"materials":[{"pbrMetallicRoughness":{"baseColorFactor":[0.623960391667596,0.6866853124288864,0.8387990117372213,1],"metallicFactor":0.75,"roughnessFactor":0.3},"name":"Airframe"}],"meshes":[{"primitives":[{"mode":4,"attributes":{"POSITION":0,"NORMAL":1,"TEXCOORD_0":2},"indices":3,"material":0}]}]}